<svg width="129" height="129" viewBox="0 0 129 129" fill="none" xmlns="http://www.w3.org/2000/svg">
<path d="M64.7492 80.1326C56.5639 104.689 23.8224 104.689 23.8224 104.689C23.8224 104.689 23.8224 71.9472 48.3785 63.7619" fill="white"/>
<path fill-rule="evenodd" clip-rule="evenodd" d="M51.3221 62.7807C51.864 64.4064 50.9854 66.1636 49.3597 66.7055C38.4013 70.3583 32.7563 79.5138 29.8356 88.276C28.3845 92.6292 27.6532 96.7621 27.2869 99.8146C27.2189 100.381 27.1636 100.909 27.1188 101.392C27.602 101.347 28.1298 101.292 28.6965 101.224C31.749 100.858 35.8818 100.127 40.2351 98.6755C48.9973 95.7548 58.1527 90.1098 61.8055 79.1514C62.3474 77.5256 64.1047 76.647 65.7304 77.1889C67.3561 77.7308 68.2347 79.4881 67.6928 81.1138C63.1603 94.7114 51.8524 101.344 42.1975 104.563C37.3422 106.181 32.7782 106.985 29.4358 107.386C27.7602 107.587 26.3797 107.688 25.4083 107.739C24.9223 107.765 24.5379 107.778 24.269 107.785C24.1346 107.788 24.029 107.79 23.954 107.791C23.9165 107.791 23.8866 107.791 23.8646 107.791L23.8375 107.791L23.8285 107.792L23.8251 107.792C23.8237 107.792 23.8224 107.792 23.8224 104.689C20.7195 104.689 20.7195 104.687 20.7195 104.686L20.7195 104.683L20.7196 104.674L20.7197 104.646C20.7198 104.624 20.7201 104.595 20.7205 104.557C20.7214 104.482 20.7232 104.376 20.7265 104.242C20.7332 103.973 20.7462 103.589 20.7718 103.103C20.8229 102.131 20.9243 100.751 21.1253 99.0752C21.5264 95.7329 22.3299 91.1688 23.9483 86.3136C27.1666 76.6587 33.7996 65.3508 47.3973 60.8182C49.023 60.2763 50.7802 61.1549 51.3221 62.7807ZM23.8224 104.689H20.7195C20.7195 106.402 22.1087 107.792 23.8224 107.792V104.689Z" fill="#0F75BA"/>
<path d="M109.351 48.9437L64.6757 93.6188L34.8923 63.8354L79.5674 19.1604C96.4839 2.24385 113.4 2.40886 120.615 3.48526C121.726 3.65085 122.754 4.16888 123.548 4.96302C124.342 5.75716 124.86 6.78539 125.026 7.8962C126.102 15.1107 126.267 32.0272 109.351 48.9437Z" fill="white"/>
<path fill-rule="evenodd" clip-rule="evenodd" d="M120.198 6.27689C113.617 5.29494 97.6865 5.0329 81.5632 21.1562L38.884 63.8354L64.6756 89.6271L107.355 46.9479C123.478 30.8246 123.216 14.8941 122.234 8.3127L122.234 8.31234C122.158 7.79979 121.919 7.32531 121.552 6.95884C121.186 6.59239 120.711 6.35335 120.199 6.27694L120.198 6.27689ZM121.031 0.693565C113.183 -0.477229 95.281 -0.54494 77.5715 17.1646L32.8965 61.8396C32.3671 62.3689 32.0698 63.0868 32.0698 63.8354C32.0698 64.584 32.3671 65.3019 32.8965 65.8312L62.6798 95.6146C63.7821 96.7169 65.5692 96.7169 66.6715 95.6146L111.346 50.9396C129.056 33.2301 128.988 15.3277 127.817 7.48004C127.563 5.77098 126.766 4.18899 125.544 2.96718C124.322 1.74543 122.74 0.948439 121.031 0.693618" fill="#0F75BA"/>
<path d="M101.905 56.3895V98.8837C101.905 99.5751 101.769 100.26 101.504 100.899C101.24 101.537 100.852 102.118 100.363 102.607L79.0779 123.892C78.404 124.565 77.5599 125.044 76.6356 125.276C75.7113 125.507 74.7413 125.484 73.8293 125.208C72.9172 124.932 72.0972 124.413 71.4566 123.707C70.8161 123.002 70.3791 122.136 70.1922 121.201L64.6757 93.6187" fill="white"/>
<path fill-rule="evenodd" clip-rule="evenodd" d="M101.905 53.567C103.464 53.567 104.727 54.8307 104.727 56.3895V98.8837C104.727 99.9458 104.518 100.997 104.112 101.979C103.705 102.96 103.11 103.851 102.359 104.602L81.0737 125.887C80.0387 126.922 78.742 127.657 77.3222 128.013C75.9023 128.369 74.4124 128.333 73.0114 127.909C71.6103 127.485 70.3507 126.688 69.3668 125.605C68.3829 124.521 67.7116 123.19 67.4245 121.755L61.908 94.1723C61.6023 92.6437 62.5936 91.1567 64.1222 90.851C65.6508 90.5453 67.1377 91.5366 67.4435 93.0652L72.96 120.648C73.0467 121.081 73.2494 121.483 73.5465 121.81C73.8437 122.138 74.2241 122.378 74.6472 122.506C75.0703 122.634 75.5203 122.645 75.9491 122.538C76.3779 122.43 76.7695 122.208 77.0821 121.896L98.367 100.611C98.5938 100.384 98.7737 100.115 98.8965 99.8184C99.0192 99.5221 99.0824 99.2045 99.0824 98.8837V56.3895C99.0824 54.8307 100.346 53.567 101.905 53.567Z" fill="#0F75BA"/>
<path d="M72.1216 26.6062H29.6274C28.936 26.6062 28.2513 26.7424 27.6126 27.007C26.9738 27.2716 26.3934 27.6594 25.9045 28.1483L4.61954 49.4332C3.94569 50.1071 3.46737 50.9512 3.23557 51.8755C3.00378 52.7999 3.02721 53.7698 3.30337 54.6819C3.57952 55.5939 4.09804 56.414 4.80364 57.0545C5.50924 57.695 6.37545 58.132 7.30991 58.3189L34.8924 63.8354" fill="white"/>
<path fill-rule="evenodd" clip-rule="evenodd" d="M26.5324 24.3993C27.5136 23.9929 28.5653 23.7837 29.6274 23.7837H72.1215C73.6804 23.7837 74.9441 25.0474 74.9441 26.6062C74.9441 28.1651 73.6804 29.4288 72.1215 29.4288H29.6273C29.3066 29.4288 28.989 29.492 28.6927 29.6147C28.3963 29.7374 28.1271 29.9174 27.9003 30.1442L6.61534 51.4291C6.30273 51.7417 6.08083 52.1333 5.9733 52.5621C5.86578 52.9909 5.87664 53.4408 6.00475 53.864C6.13286 54.2871 6.37341 54.6675 6.70074 54.9646C7.02807 55.2618 7.42991 55.4645 7.86341 55.5512L35.4459 61.0677C36.9745 61.3734 37.9658 62.8604 37.6601 64.389C37.3544 65.9175 35.8674 66.9089 34.3388 66.6031L6.75633 61.0867C5.32092 60.7996 3.99033 60.1283 2.90646 59.1444C1.8226 58.1605 1.0261 56.9008 0.601904 55.4998C0.177707 54.0988 0.141714 52.6089 0.497769 51.189C0.853826 49.7691 1.58858 48.4725 2.62367 47.4374L23.9086 26.1525C24.6596 25.4015 25.5512 24.8058 26.5324 24.3993Z" fill="#0F75BA"/>
</svg>
